<svg width="39" height="34" viewBox="0 0 39 34" fill="none" xmlns="http://www.w3.org/2000/svg">
<path d="M36.6665 20H24.6665C24.1361 20 23.6274 19.7893 23.2523 19.4142C22.8772 19.0391 22.6665 18.5304 22.6665 18C22.6665 17.4696 22.8772 16.9609 23.2523 16.5858C23.6274 16.2107 24.1361 16 24.6665 16H36.6665C37.1969 16 37.7056 16.2107 38.0807 16.5858C38.4558 16.9609 38.6665 17.4696 38.6665 18C38.6665 18.5304 38.4558 19.0391 38.0807 19.4142C37.7056 19.7893 37.1969 20 36.6665 20ZM30.6665 26C30.1361 26 29.6274 25.7893 29.2523 25.4142C28.8772 25.0391 28.6665 24.5304 28.6665 24V12C28.6665 11.4696 28.8772 10.9609 29.2523 10.5858C29.6274 10.2107 30.1361 10 30.6665 10C31.1969 10 31.7056 10.2107 32.0807 10.5858C32.4558 10.9609 32.6665 11.4696 32.6665 12V24C32.6665 24.5304 32.4558 25.0391 32.0807 25.4142C31.7056 25.7893 31.1969 26 30.6665 26ZM12.6665 4C15.9745 4 18.6665 6.692 18.6665 10C18.6665 13.308 15.9745 16 12.6665 16C9.3585 16 6.6665 13.308 6.6665 10C6.6665 6.692 9.3585 4 12.6665 4ZM12.6665 0C7.1385 0 2.6665 4.476 2.6665 10C2.6665 15.524 7.1385 20 12.6665 20C18.1945 20 22.6665 15.524 22.6665 10C22.6665 4.476 18.1945 0 12.6665 0ZM12.6665 26C16.7085 26 19.2685 27.542 20.2325 28.89C18.8665 29.41 16.2945 30 12.6665 30C8.6985 30 6.2545 29.39 5.0305 28.916C5.9485 27.486 8.5845 26 12.6665 26ZM12.6665 22C5.1665 22 0.666504 26 0.666504 30C0.666504 32 5.1665 34 12.6665 34C19.7025 34 24.6665 32 24.6665 30C24.6665 26 19.9585 22 12.6665 22Z" fill="#EB7A1C"/>
</svg>
