<svg width="49" height="48" viewBox="0 0 49 48" fill="none" xmlns="http://www.w3.org/2000/svg">
<path d="M42.667 28H30.667C30.1366 28 29.6279 27.7893 29.2528 27.4142C28.8777 27.0391 28.667 26.5304 28.667 26C28.667 25.4696 28.8777 24.9609 29.2528 24.5858C29.6279 24.2107 30.1366 24 30.667 24H42.667C43.1974 24 43.7061 24.2107 44.0812 24.5858C44.4563 24.9609 44.667 25.4696 44.667 26C44.667 26.5304 44.4563 27.0391 44.0812 27.4142C43.7061 27.7893 43.1974 28 42.667 28ZM36.667 34C36.1366 34 35.6278 33.7893 35.2528 33.4142C34.8777 33.0391 34.667 32.5304 34.667 32V20C34.667 19.4696 34.8777 18.9609 35.2528 18.5858C35.6278 18.2107 36.1366 18 36.667 18C37.1974 18 37.7061 18.2107 38.0812 18.5858C38.4563 18.9609 38.667 19.4696 38.667 20V32C38.667 32.5304 38.4563 33.0391 38.0812 33.4142C37.7061 33.7893 37.1974 34 36.667 34ZM18.667 12C21.975 12 24.667 14.692 24.667 18C24.667 21.308 21.975 24 18.667 24C15.359 24 12.667 21.308 12.667 18C12.667 14.692 15.359 12 18.667 12ZM18.667 8C13.139 8 8.66699 12.476 8.66699 18C8.66699 23.524 13.139 28 18.667 28C24.195 28 28.667 23.524 28.667 18C28.667 12.476 24.195 8 18.667 8ZM18.667 34C22.709 34 25.269 35.542 26.233 36.89C24.867 37.41 22.295 38 18.667 38C14.699 38 12.255 37.39 11.031 36.916C11.949 35.486 14.585 34 18.667 34ZM18.667 30C11.167 30 6.66699 34 6.66699 38C6.66699 40 11.167 42 18.667 42C25.703 42 30.667 40 30.667 38C30.667 34 25.959 30 18.667 30Z" fill="#EB7A1C"/>
</svg>
