<svg width="49" height="48" viewBox="0 0 49 48" fill="none" xmlns="http://www.w3.org/2000/svg">
<g clip-path="url(#clip0_1007_12733)">
<path d="M2.56152 40.0923V27.6809L13.4198 23.0283L24.2781 27.6843V40.0923L13.4198 44.7415L2.56152 40.0923Z" stroke="#EB7A1C" stroke-width="3.42857" stroke-linecap="round" stroke-linejoin="round"/>
<path d="M2.56152 27.6555L13.4198 32.308L24.2781 27.6555M13.4198 10.7012L24.2747 15.3572L35.133 10.7046" stroke="#EB7A1C" stroke-width="3.42857" stroke-linecap="round" stroke-linejoin="round"/>
<path d="M24.2744 27.6562L35.1327 32.3088L45.991 27.6562" stroke="#EB7A1C" stroke-width="3.42857" stroke-linecap="round" stroke-linejoin="round"/>
<path d="M13.4199 32.3159V44.7445M35.1399 32.3159V44.7445M24.2748 15.3582V27.7833M13.4268 23.021V10.6096L24.2816 5.95703L35.1399 10.6096V23.021L24.2816 27.6736L13.4268 23.021ZM24.2748 40.0919V27.6805L35.1331 23.0279L45.9914 27.6839V40.0919L35.1331 44.741L24.2748 40.0919Z" stroke="#EB7A1C" stroke-width="3.42857" stroke-linecap="round" stroke-linejoin="round"/>
</g>
<defs>
<clipPath id="clip0_1007_12733">
<rect width="48" height="48" fill="white" transform="translate(0.333008)"/>
</clipPath>
</defs>
</svg>
