<svg width="20" height="20" viewBox="0 0 20 20" fill="none" xmlns="http://www.w3.org/2000/svg">
<path d="M2.22196 17.7777C2.68584 18.2423 3.23693 18.6106 3.84358 18.8615C4.45023 19.1123 5.10048 19.2409 5.75696 19.2397C6.41359 19.2409 7.06398 19.1123 7.67079 18.8614C8.2776 18.6105 8.82887 18.2422 9.29296 17.7777L12.121 14.9487L10.707 13.5347L7.87896 16.3637C7.31543 16.9247 6.55263 17.2397 5.75746 17.2397C4.96229 17.2397 4.19949 16.9247 3.63596 16.3637C3.07447 15.8004 2.75917 15.0375 2.75917 14.2422C2.75917 13.4469 3.07447 12.684 3.63596 12.1207L6.46496 9.29272L5.05096 7.87872L2.22196 10.7067C1.28577 11.6452 0.76001 12.9166 0.76001 14.2422C0.76001 15.5678 1.28577 16.8393 2.22196 17.7777ZM17.778 9.29272C18.7137 8.354 19.2391 7.08264 19.2391 5.75722C19.2391 4.4318 18.7137 3.16043 17.778 2.22172C16.8395 1.28552 15.568 0.759766 14.2425 0.759766C12.9169 0.759766 11.6454 1.28552 10.707 2.22172L7.87896 5.05072L9.29296 6.46472L12.121 3.63572C12.6845 3.07471 13.4473 2.75975 14.2425 2.75975C15.0376 2.75975 15.8004 3.07471 16.364 3.63572C16.9255 4.19899 17.2408 4.96189 17.2408 5.75722C17.2408 6.55255 16.9255 7.31545 16.364 7.87872L13.535 10.7067L14.949 12.1207L17.778 9.29272Z" fill="#222222"/>
<path d="M6.46395 14.9498L5.04895 13.5358L13.536 5.0498L14.95 6.4648L6.46395 14.9498Z" fill="#222222"/>
</svg>
