<svg width="19" height="19" viewBox="0 0 19 19" fill="none" xmlns="http://www.w3.org/2000/svg">
<path d="M16.1243 2.77297C14.3784 0.975676 11.9649 0 9.5 0C4.26216 0 0.0513514 4.26216 0.102703 9.44865C0.102703 11.0919 0.564865 12.6838 1.33513 14.1216L0 19L4.98108 17.7162C6.36757 18.4865 7.90811 18.8459 9.44865 18.8459C14.6351 18.8459 18.8459 14.5838 18.8459 9.3973C18.8459 6.88108 17.8703 4.51892 16.1243 2.77297ZM9.5 17.2541C8.11351 17.2541 6.72703 16.8946 5.54595 16.1757L5.23784 16.0216L2.25946 16.7919L3.02973 13.8649L2.82432 13.5568C0.564865 9.91081 1.64324 5.08378 5.34054 2.82432C9.03784 0.564865 13.8135 1.64324 16.073 5.34054C18.3324 9.03784 17.2541 13.8135 13.5568 16.073C12.3757 16.8432 10.9378 17.2541 9.5 17.2541ZM14.0189 11.5541L13.4541 11.2973C13.4541 11.2973 12.6324 10.9378 12.1189 10.6811C12.0676 10.6811 12.0162 10.6297 11.9649 10.6297C11.8108 10.6297 11.7081 10.6811 11.6054 10.7324C11.6054 10.7324 11.5541 10.7838 10.8351 11.6054C10.7838 11.7081 10.6811 11.7595 10.5784 11.7595H10.527C10.4757 11.7595 10.373 11.7081 10.3216 11.6568L10.0649 11.5541C9.5 11.2973 8.98649 10.9892 8.57568 10.5784C8.47297 10.4757 8.31892 10.373 8.21622 10.2703C7.85676 9.91081 7.4973 9.5 7.24054 9.03784L7.18919 8.93513C7.13784 8.88378 7.13784 8.83243 7.08649 8.72973C7.08649 8.62703 7.08649 8.52432 7.13784 8.47297C7.13784 8.47297 7.34324 8.21622 7.4973 8.06216C7.6 7.95946 7.65135 7.80541 7.75405 7.7027C7.85676 7.54865 7.90811 7.34324 7.85676 7.18919C7.80541 6.93243 7.18919 5.54595 7.03513 5.23784C6.93243 5.08378 6.82973 5.03243 6.67568 4.98108H6.52162C6.41892 4.98108 6.26486 4.98108 6.11081 4.98108C6.00811 4.98108 5.90541 5.03243 5.8027 5.03243L5.75135 5.08378C5.64865 5.13514 5.54595 5.23784 5.44324 5.28919C5.34054 5.39189 5.28919 5.49459 5.18649 5.5973C4.82703 6.05946 4.62162 6.62432 4.62162 7.18919C4.62162 7.6 4.72432 8.01081 4.87838 8.37027L4.92973 8.52432C5.39189 9.5 6.00811 10.373 6.82973 11.1432L7.03513 11.3486C7.18919 11.5027 7.34324 11.6054 7.44595 11.7595C8.52432 12.6838 9.75676 13.3514 11.1432 13.7108C11.2973 13.7622 11.5027 13.7622 11.6568 13.8135C11.8108 13.8135 12.0162 13.8135 12.1703 13.8135C12.427 13.8135 12.7351 13.7108 12.9405 13.6081C13.0946 13.5054 13.1973 13.5054 13.3 13.4027L13.4027 13.3C13.5054 13.1973 13.6081 13.1459 13.7108 13.0432C13.8135 12.9405 13.9162 12.8378 13.9676 12.7351C14.0703 12.5297 14.1216 12.273 14.173 12.0162C14.173 11.9135 14.173 11.7595 14.173 11.6568C14.173 11.6568 14.1216 11.6054 14.0189 11.5541Z" fill="#222222"/>
</svg>
